<?xml version="1.0" standalone="no"?>
<!DOCTYPE svg PUBLIC "-//W3C//DTD SVG 20010904//EN"
 "http://www.w3.org/TR/2001/REC-SVG-20010904/DTD/svg10.dtd">
<svg version="1.0" xmlns="http://www.w3.org/2000/svg"
 width="2400.000000pt" height="2400.000000pt" viewBox="0 0 2400.000000 2400.000000"
 preserveAspectRatio="xMidYMid meet">

<g transform="translate(0.000000,2400.000000) scale(0.100000,-0.100000)"
fill="#CF4037" stroke="none">
<path d="M10245 22954 c-130 -13 -305 -39 -405 -60 -622 -132 -1210 -462
-1760 -987 -145 -139 -370 -381 -366 -393 2 -6 96 -143 208 -305 299 -431 457
-662 725 -1061 l240 -357 369 246 c203 136 406 264 451 285 149 70 370 132
618 174 87 15 118 16 235 6 361 -31 608 -99 1325 -367 533 -199 745 -265 1010
-314 372 -69 745 -60 1117 25 610 139 1214 471 2004 1102 l182 145 -117 191
c-64 105 -316 521 -561 924 -245 402 -449 732 -454 732 -5 0 -194 -123 -421
-273 -266 -177 -437 -284 -486 -305 -94 -39 -237 -76 -399 -104 -179 -32 -462
-31 -645 0 -288 50 -534 124 -1025 309 -658 248 -868 312 -1218 369 -93 15
-529 28 -627 18z"/>
<path d="M7810 16770 l0 -1400 -2790 0 -2790 0 0 -1410 0 -1410 2790 0 2790 0
0 -1390 0 -1390 1400 0 1400 0 0 4200 0 4200 -1400 0 -1400 0 0 -1400z"/>
<path d="M13370 13970 l0 -4200 1400 0 1400 0 0 1390 0 1390 2790 0 2790 0 0
1410 0 1410 -2790 0 -2790 0 0 1400 0 1400 -1400 0 -1400 0 0 -4200z"/>
<path d="M11410 7660 l0 -210 290 0 290 0 0 210 0 210 -290 0 -290 0 0 -210z"/>
<path d="M2260 6770 l0 -1070 310 0 310 0 0 1070 0 1070 -310 0 -310 0 0
-1070z"/>
<path d="M9628 7810 c-92 -3 -170 -9 -174 -13 -4 -4 -17 -118 -30 -254 -12
-137 -22 -249 -23 -250 -1 -2 -55 -3 -121 -3 l-120 0 0 -200 0 -200 110 0 110
0 0 -397 c0 -436 6 -490 57 -585 42 -78 120 -150 209 -194 70 -35 85 -39 173
-42 63 -2 153 5 261 20 l165 23 3 221 2 221 -62 -14 c-35 -8 -87 -13 -117 -10
-46 3 -59 9 -83 36 l-28 31 0 345 0 345 145 0 145 0 0 200 0 200 -150 0 -150
0 0 265 0 265 -77 -2 c-43 -1 -153 -4 -245 -8z"/>
<path d="M13563 7810 c-95 -3 -174 -8 -177 -11 -2 -2 -14 -112 -26 -244 -11
-132 -23 -246 -25 -252 -3 -10 -37 -13 -125 -13 l-120 0 0 -200 0 -200 110 0
110 0 0 -369 c0 -203 5 -405 10 -448 22 -160 123 -298 270 -367 89 -42 195
-45 425 -14 l170 24 3 220 2 221 -62 -13 c-129 -27 -190 -15 -220 46 -16 31
-18 71 -18 368 l0 332 150 0 150 0 0 200 0 199 -152 3 -153 3 -3 263 -2 262
-73 -2 c-39 -1 -149 -4 -244 -8z"/>
<path d="M18383 7810 c-95 -4 -175 -9 -177 -11 -2 -2 -11 -94 -20 -204 -10
-110 -20 -224 -23 -252 l-6 -53 -123 0 -124 0 0 -200 0 -200 109 0 109 0 5
-412 c4 -440 7 -471 58 -571 34 -67 134 -159 214 -197 63 -31 80 -34 170 -37
66 -2 156 4 265 20 l165 23 3 220 2 221 -62 -13 c-119 -25 -191 -13 -220 39
-10 16 -14 109 -16 365 l-3 342 150 0 151 0 0 200 0 200 -150 0 -150 0 0 265
0 265 -77 -2 c-43 -1 -156 -4 -250 -8z"/>
<path d="M4923 7305 c-112 -31 -201 -98 -254 -190 l-29 -50 0 113 0 112 -275
0 -275 0 0 -795 0 -795 290 0 290 0 0 513 c0 562 2 587 57 639 40 37 66 48
113 48 56 0 94 -22 116 -67 18 -36 19 -73 22 -585 l3 -548 289 0 290 0 0 558
c0 576 -6 693 -40 790 -42 120 -134 210 -254 248 -71 23 -274 29 -343 9z"/>
<path d="M7242 7309 c-315 -55 -512 -257 -512 -523 0 -315 189 -464 670 -531
202 -28 270 -57 270 -115 0 -62 -79 -94 -230 -94 -168 0 -262 40 -304 129 -10
21 -24 35 -35 35 -29 0 -434 -60 -439 -65 -3 -2 6 -29 18 -60 115 -283 402
-432 794 -412 453 23 716 227 716 557 0 140 -44 251 -135 344 -100 101 -229
147 -525 186 -238 31 -281 44 -301 97 -24 64 64 107 209 101 106 -4 172 -32
217 -94 l30 -40 215 44 c118 24 217 46 219 48 2 2 -11 34 -29 71 -49 100 -151
199 -260 251 -132 63 -182 74 -370 77 -91 2 -189 0 -218 -6z"/>
<path d="M20715 7304 c-257 -57 -467 -230 -561 -462 -44 -111 -56 -173 -61
-320 -5 -123 -2 -156 17 -239 97 -420 511 -677 965 -598 302 53 530 248 626
535 27 81 32 114 36 225 16 416 -186 721 -557 841 -75 24 -104 27 -240 30
-114 3 -174 -1 -225 -12z m275 -386 c101 -52 136 -180 127 -468 -6 -187 -19
-260 -58 -329 -28 -51 -63 -71 -133 -78 -40 -3 -60 0 -96 19 -87 45 -119 164
-119 438 -1 176 13 269 47 336 50 98 139 129 232 82z"/>
<path d="M11410 6495 l0 -795 290 0 290 0 0 795 0 795 -290 0 -290 0 0 -795z"/>
<path d="M15330 6668 c0 -679 2 -698 57 -801 88 -160 312 -235 537 -177 43 11
100 32 128 47 63 34 141 119 163 178 10 25 22 45 26 45 5 0 9 -58 9 -130 l0
-130 270 0 270 0 0 795 0 795 -290 0 -290 0 0 -504 c0 -427 -2 -510 -15 -547
-28 -77 -85 -121 -160 -121 -54 0 -81 14 -105 55 -19 31 -20 55 -20 575 l0
542 -290 0 -290 0 0 -622z"/>
<path d="M2966 3294 c-216 -47 -381 -159 -505 -344 -133 -199 -201 -463 -201
-784 0 -485 181 -846 507 -1010 144 -72 384 -105 560 -76 315 50 556 267 647
584 22 73 48 216 41 223 -1 2 -98 10 -216 18 -118 8 -241 17 -275 20 l-61 5
-17 -86 c-36 -186 -122 -274 -266 -274 -104 0 -171 43 -221 141 -56 112 -64
167 -64 454 0 212 3 275 18 342 28 130 56 192 112 250 69 71 138 89 224 58
112 -39 178 -152 196 -334 l7 -73 72 6 c39 3 166 11 281 17 116 6 211 12 212
13 10 9 -35 232 -64 318 -97 296 -298 476 -591 534 -94 18 -306 17 -396 -2z"/>
<path d="M16373 3251 c-78 -4 -144 -8 -147 -11 -3 -3 -14 -116 -26 -250 -11
-135 -22 -251 -25 -257 -3 -10 -37 -13 -125 -13 l-120 0 0 -205 0 -205 109 0
109 0 4 -427 c4 -402 5 -432 25 -490 30 -89 64 -142 132 -206 71 -65 142 -101
233 -118 58 -11 88 -9 272 16 l206 28 0 225 0 224 -22 -6 c-52 -15 -177 -19
-209 -6 -56 24 -59 42 -59 420 l0 340 145 0 145 0 0 205 0 204 -147 3 -148 3
-3 268 -2 267 -103 -2 c-56 -1 -166 -4 -244 -7z"/>
<path d="M5574 2750 c-102 -11 -248 -59 -338 -112 -346 -205 -486 -741 -296
-1134 100 -206 268 -345 492 -405 96 -26 319 -36 424 -20 243 40 442 174 540
366 40 77 80 182 72 190 -2 3 -257 22 -501 38 -38 2 -38 2 -57 -53 -32 -95
-102 -140 -218 -140 -131 0 -207 78 -226 232 -10 85 -55 78 506 78 l501 0 -6
138 c-9 225 -64 396 -177 545 -111 147 -306 254 -492 272 -128 12 -145 12
-224 5z m206 -385 c16 -8 40 -30 54 -48 27 -35 56 -131 56 -184 l0 -33 -216 0
-217 0 7 61 c15 151 106 237 234 224 30 -3 67 -12 82 -20z"/>
<path d="M8103 2750 c-61 -13 -114 -43 -160 -93 -50 -54 -68 -88 -104 -192
l-28 -80 0 168 -1 167 -245 0 -245 0 0 -810 0 -810 284 0 284 0 4 443 c3 395
6 447 22 492 44 122 106 160 264 160 l102 0 0 276 0 276 -52 7 c-61 7 -69 7
-125 -4z"/>
<path d="M11982 2749 c-333 -24 -556 -173 -642 -428 -11 -35 -19 -65 -17 -67
4 -4 468 -54 504 -54 16 0 24 9 34 38 30 94 98 136 219 137 126 0 174 -44 175
-160 l0 -60 -40 -3 c-333 -21 -637 -109 -767 -222 -62 -54 -123 -148 -148
-227 -24 -77 -27 -212 -6 -289 57 -215 247 -344 506 -344 200 0 347 67 448
202 l37 49 12 -103 c6 -57 12 -106 12 -110 1 -5 127 -8 281 -8 l279 0 -14 41
c-28 79 -35 209 -35 679 0 518 -4 565 -56 661 -37 67 -111 140 -182 177 -143
75 -359 108 -600 91z m276 -1006 c-6 -131 -23 -191 -66 -236 -35 -37 -52 -46
-109 -57 -103 -19 -183 24 -199 105 -19 101 31 189 136 243 60 30 163 59 219
61 l23 1 -4 -117z"/>
<path d="M14595 2749 c-153 -19 -265 -95 -333 -224 l-21 -40 -1 118 0 117
-275 0 -275 0 0 -810 0 -810 289 0 290 0 3 538 3 537 25 50 c33 66 77 95 144
95 59 0 88 -16 114 -63 15 -29 17 -82 20 -594 l3 -563 290 0 290 0 -4 623 c-4
678 -5 694 -63 812 -31 62 -100 132 -163 164 -84 43 -226 64 -336 50z"/>
<path d="M18560 2749 c-304 -26 -552 -211 -661 -492 -53 -139 -72 -251 -66
-402 17 -412 255 -698 642 -770 124 -24 349 -16 455 15 247 72 429 246 501
483 16 53 16 57 1 57 -26 0 -452 29 -494 34 -36 4 -38 2 -44 -30 -10 -53 -57
-118 -100 -140 -30 -14 -60 -19 -126 -19 -80 0 -89 2 -129 30 -59 42 -89 103
-96 199 l-6 76 508 0 508 0 -7 122 c-15 274 -86 464 -229 615 -157 167 -390
245 -657 222z m205 -393 c56 -33 86 -94 93 -187 l5 -69 -212 0 -211 0 0 48 c0
102 58 199 135 228 55 20 135 12 190 -20z"/>
<path d="M20885 2750 c-250 -21 -438 -126 -537 -300 -41 -71 -58 -144 -58
-251 0 -206 78 -337 252 -425 94 -48 210 -79 402 -109 211 -33 255 -47 275
-92 16 -35 -5 -73 -54 -98 -34 -17 -60 -20 -175 -20 -120 0 -141 3 -188 24
-51 23 -112 79 -112 104 -1 39 -11 39 -243 6 -172 -25 -227 -36 -227 -46 0
-27 67 -158 108 -212 125 -165 315 -248 588 -258 300 -11 534 58 680 202 185
182 195 513 21 702 -98 106 -226 159 -474 193 -81 11 -178 25 -215 31 -143 23
-196 110 -96 157 126 60 319 22 378 -73 12 -19 27 -35 33 -35 39 0 427 87 427
96 0 29 -66 138 -119 195 -146 159 -381 232 -666 209z"/>
<path d="M9115 2533 c36 -104 161 -467 279 -808 l214 -620 221 -3 c121 -1 221
-1 221 1 0 2 122 363 270 802 149 439 270 802 270 807 0 4 -92 8 -205 8 l-204
0 -35 -112 c-20 -62 -78 -252 -130 -422 -52 -170 -97 -311 -100 -313 -5 -5
-20 42 -161 514 l-100 333 -302 0 -302 0 64 -187z"/>
</g>
</svg>
